<svg width="185" height="185" viewBox="0 0 185 185" fill="none" xmlns="http://www.w3.org/2000/svg">
<rect width="184.53" height="184.53" fill="white"/>
<path d="M92.6353 92.6252C89.0573 92.6252 85.4793 91.9997 82.6903 90.7487L43.3778 73.0853C41.5795 72.2792 37.3853 69.9211 37.3853 65.4693C37.3853 61.0175 41.5795 58.6646 43.3831 57.8481L83.0356 40.0329C88.4995 37.5727 96.7445 37.5727 102.211 40.0329L141.887 57.8481C143.691 58.6568 147.885 61.0149 147.885 65.4693C147.885 69.9238 143.691 72.274 141.887 73.0879L102.575 90.7487C99.7912 91.9997 96.2132 92.6252 92.6353 92.6252Z" fill="black"/>
<path d="M141.872 84.9857L137.863 83.2034L127.565 87.8463L102.596 99.1002C99.8071 100.356 96.2212 100.982 92.6512 100.982C89.0812 100.982 85.4979 100.356 82.7115 99.1002L57.7242 87.8463L47.4232 83.2034L43.3804 84.9935C41.5795 85.8022 37.3853 88.176 37.3853 92.6252C37.3853 97.0745 41.5795 99.4509 43.3778 100.26L82.6903 117.96C85.4634 119.216 89.0467 119.844 92.6353 119.844C96.2238 119.844 99.7912 119.216 102.58 117.962L141.858 100.267C143.667 99.4587 147.885 97.098 147.885 92.6252C147.885 88.1525 143.696 85.8022 141.872 84.9857Z" fill="black"/>
<path d="M141.872 112.202L137.863 110.422L127.565 115.062L102.596 126.303C99.8071 127.554 96.2212 128.182 92.6512 128.182C89.0812 128.182 85.4979 127.557 82.7115 126.303L57.7242 115.049L47.4232 110.422L43.3804 112.212C41.5795 113.021 37.3853 115.395 37.3853 119.844C37.3853 124.293 41.5795 126.667 43.3778 127.473L82.6903 145.163C85.4634 146.414 89.0599 147.063 92.6353 147.063C96.2106 147.063 99.7753 146.414 102.564 145.16L141.856 127.476C143.667 126.67 147.885 124.309 147.885 119.844C147.885 115.379 143.696 113.021 141.872 112.202Z" fill="black"/>
</svg>
