<svg width="185" height="185" viewBox="0 0 185 185" fill="none" xmlns="http://www.w3.org/2000/svg">
<rect width="184.53" height="184.53" fill="white"/>
<path d="M93 93C88.7906 93 84.5812 92.2625 81.3 90.7874L35.05 69.9604C32.9344 69.0099 28 66.2295 28 60.9803C28 55.7311 32.9344 52.9569 35.0563 51.9941L81.7062 30.9881C88.1344 28.0873 97.8344 28.0873 104.266 30.9881L150.944 51.9941C153.066 52.9476 158 55.728 158 60.9803C158 66.2326 153.066 69.0038 150.944 69.9635L104.694 90.7874C101.419 92.2625 97.2094 93 93 93Z" fill="black"/>
<path d="M150.925 83.9921L146.209 81.8906L134.094 87.3651L104.719 100.635C101.438 102.116 97.2188 102.853 93.0188 102.853C88.8187 102.853 84.6031 102.116 81.325 100.635L51.9281 87.3651L39.8094 81.8906L35.0531 84.0014C32.9344 84.955 28 87.7539 28 93C28 98.2461 32.9344 101.048 35.05 102.002L81.3 122.872C84.5625 124.353 88.7781 125.094 93 125.094C97.2219 125.094 101.419 124.353 104.7 122.875L150.909 102.011C153.037 101.057 158 98.2739 158 93C158 87.7261 153.072 84.955 150.925 83.9921Z" fill="black"/>
<path d="M150.925 116.083L146.209 113.984L134.094 119.456L104.719 132.71C101.438 134.185 97.2188 134.926 93.0188 134.926C88.8187 134.926 84.6031 134.188 81.325 132.71L51.9281 119.44L39.8094 113.984L35.0531 116.095C32.9344 117.049 28 119.848 28 125.094C28 130.34 32.9344 133.139 35.05 134.089L81.3 154.947C84.5625 156.422 88.7938 157.188 93 157.188C97.2063 157.188 101.4 156.422 104.681 154.944L150.906 134.092C153.037 133.142 158 130.358 158 125.094C158 119.829 153.072 117.049 150.925 116.083Z" fill="black"/>
</svg>
