<svg width="746" height="100" viewBox="0 0 746 100" fill="none" xmlns="http://www.w3.org/2000/svg">
<path d="M106.958 48.75C106.658 33.975 119.183 21.6 133.958 21.9C146.258 21.9 156.758 29.925 159.908 41.175H149.558C146.858 35.25 140.933 31.425 133.958 31.425C124.283 31.425 116.708 39.075 116.708 48.75C116.708 58.425 124.283 66.075 133.958 66.075C140.633 66.075 146.408 62.475 149.333 56.775H159.758C156.458 67.725 146.108 75.6 133.958 75.6C119.183 75.9 106.658 63.525 106.958 48.75ZM176.022 75H166.272V22.5H176.022V75ZM183.519 27.675C183.519 24.45 186.069 21.9 189.369 21.9C192.594 21.9 195.144 24.45 195.144 27.675C195.144 30.975 192.594 33.525 189.369 33.525C186.069 33.525 183.519 30.975 183.519 27.675ZM184.494 75V37.5H194.244V75H184.494ZM201.507 56.25C201.282 45.825 210.432 36.675 220.857 36.9C225.282 36.9 229.182 38.25 232.557 40.875C236.007 43.5 238.332 46.8 239.457 50.925H229.107C227.382 48.15 224.457 46.425 220.932 46.425C218.157 46.425 215.907 47.4 214.032 49.275C212.157 51.15 211.257 53.475 211.257 56.25C211.257 59.025 212.157 61.425 214.032 63.3C215.907 65.175 218.157 66.075 220.932 66.075C224.232 66.075 227.007 64.575 228.807 61.95H239.382C238.182 65.925 235.857 69.225 232.482 71.775C229.107 74.325 225.207 75.6 220.857 75.6C210.432 75.825 201.282 66.675 201.507 56.25ZM245.807 75V22.5H255.557V49.875L268.007 37.5H280.457L266.207 51.9L282.857 75H271.982L259.607 58.05L255.557 62.1V75H245.807ZM313.488 22.5H324.213L307.263 50.925V75H297.513V50.925L280.638 22.5H291.363L302.388 41.1L313.488 22.5ZM357.301 56.25C357.526 66.675 348.376 75.825 337.951 75.6C327.526 75.825 318.376 66.675 318.601 56.25C318.376 45.825 327.526 36.675 337.951 36.9C348.376 36.675 357.526 45.825 357.301 56.25ZM328.351 56.25C328.351 59.025 329.251 61.425 331.126 63.3C333.001 65.175 335.251 66.075 338.026 66.075C340.801 66.075 343.051 65.175 344.851 63.3C346.651 61.425 347.551 59.025 347.551 56.25C347.551 53.475 346.651 51.15 344.851 49.275C343.051 47.4 340.801 46.425 338.026 46.425C335.251 46.425 333.001 47.4 331.126 49.275C329.251 51.15 328.351 53.475 328.351 56.25ZM386.957 37.5H396.707V57.225C396.707 69.45 390.182 75.6 380.207 75.6C370.232 75.6 363.707 69.45 363.707 57.225V37.5H373.457V57.225C373.457 63.3 375.482 66.075 380.207 66.075C384.932 66.075 386.957 63.3 386.957 57.225V37.5ZM403.457 75V55.275C403.457 43.35 409.907 37.35 419.507 37.35H419.957V46.875H419.582C415.307 46.875 413.207 49.5 413.207 55.275V75H403.457ZM462.352 75L458.302 63.6H438.502L434.452 75H424.477L443.527 22.5H453.277L472.327 75H462.352ZM441.727 54.45H455.077L448.402 35.7L441.727 54.45ZM497.579 36.9C507.929 36.675 517.079 45.825 516.929 56.25C517.079 66.675 507.929 75.825 497.579 75.6C493.904 75.6 490.754 74.625 488.129 72.75V90H478.304V56.25C478.079 45.825 487.154 36.675 497.579 36.9ZM507.179 56.25C507.179 53.475 506.279 51.15 504.479 49.275C502.679 47.4 500.429 46.425 497.654 46.425C494.879 46.425 492.629 47.4 490.754 49.275C488.879 51.15 487.979 53.475 487.979 56.25C487.979 59.025 488.879 61.425 490.754 63.3C492.629 65.175 494.879 66.075 497.654 66.075C500.429 66.075 502.679 65.175 504.479 63.3C506.279 61.425 507.179 59.025 507.179 56.25ZM542.603 36.9C552.953 36.675 562.103 45.825 561.953 56.25C562.103 66.675 552.953 75.825 542.603 75.6C538.928 75.6 535.778 74.625 533.153 72.75V90H523.328V56.25C523.103 45.825 532.178 36.675 542.603 36.9ZM552.203 56.25C552.203 53.475 551.303 51.15 549.503 49.275C547.703 47.4 545.453 46.425 542.678 46.425C539.903 46.425 537.653 47.4 535.778 49.275C533.903 51.15 533.003 53.475 533.003 56.25C533.003 59.025 533.903 61.425 535.778 63.3C537.653 65.175 539.903 66.075 542.678 66.075C545.453 66.075 547.703 65.175 549.503 63.3C551.303 61.425 552.203 59.025 552.203 56.25ZM585.409 82.68H583.489V27H585.409V82.68ZM644.926 52.6C645.182 65.208 634.43 75.192 621.886 75H608.766V30.2H621.886C634.43 30.008 645.182 39.992 644.926 52.6ZM643.006 52.6C643.262 41.144 633.47 31.864 621.886 32.12H610.686V73.08H621.886C633.47 73.336 643.262 64.056 643.006 52.6ZM683.078 59C683.27 67.896 675.462 75.704 666.566 75.512C657.67 75.704 649.862 67.896 650.054 59C649.862 50.104 657.67 42.296 666.566 42.488C675.462 42.296 683.27 50.104 683.078 59ZM651.974 59C651.974 67.128 658.63 73.784 666.63 73.784C674.63 73.784 681.158 67.128 681.158 59C681.158 50.872 674.758 44.216 666.63 44.216C658.502 44.216 651.974 50.872 651.974 59ZM688.224 59C688.032 50.104 695.84 42.296 704.736 42.488C710.432 42.488 715.68 45.368 718.56 49.976H716.384C713.76 46.392 709.472 44.216 704.8 44.216C696.672 44.216 690.144 50.872 690.144 59C690.144 67.128 696.8 73.784 704.8 73.784C709.6 73.784 713.952 71.48 716.576 67.704H718.816C715.808 72.504 710.56 75.512 704.736 75.512C695.84 75.704 688.032 67.896 688.224 59ZM723.636 66.936H725.556C725.556 71.224 728.948 73.784 733.556 73.784C738.612 73.784 741.556 71.416 741.556 67.064C741.236 61.624 738.484 60.6 733.172 58.936C727.732 57.208 724.788 56.12 724.468 50.232C724.468 45.56 728.308 42.488 733.364 42.488C738.42 42.488 742.26 45.56 742.26 50.232H740.34C740.34 46.456 737.46 44.216 733.364 44.216C729.268 44.216 726.388 46.456 726.388 50.232C726.644 55.032 729.14 55.864 734.132 57.336C736.18 57.912 737.844 58.552 739.06 59.128C741.556 60.344 743.476 62.712 743.476 67.064C743.476 72.184 739.444 75.512 733.556 75.512C728.308 75.512 723.636 72.12 723.636 66.936Z" fill="white"/>
<path d="M40.6875 50.2452C38.0526 50.2452 35.4177 49.7828 33.3637 48.8579L4.41303 35.7995C3.08873 35.2036 0 33.4603 0 30.1691C0 26.8779 3.08873 25.1384 4.41694 24.5347L33.618 11.3641C37.6418 9.54531 43.7136 9.54531 47.7393 11.3641L76.9581 24.5347C78.2863 25.1326 81.375 26.8759 81.375 30.1691C81.375 33.4622 78.2863 35.1997 76.9581 35.8015L48.0073 48.8579C45.9573 49.7828 43.3224 50.2452 40.6875 50.2452Z" fill="white"/>
<path d="M76.9463 44.5973L73.9945 43.2797L66.4106 46.7121L48.023 55.032C45.9691 55.9608 43.3283 56.4232 40.6992 56.4232C38.0702 56.4232 35.4314 55.9608 33.3794 55.032L14.9781 46.7121L7.39221 43.2797L4.41498 44.6031C3.08873 45.201 0 46.9559 0 50.2452C0 53.5345 3.08873 55.2913 4.41303 55.8892L33.3637 68.9747C35.4059 69.9034 38.0448 70.3678 40.6875 70.3678C43.3302 70.3678 45.9573 69.9034 48.0113 68.9766L76.9365 55.895C78.2687 55.2971 81.375 53.5519 81.375 50.2452C81.375 46.9385 78.2902 45.201 76.9463 44.5973Z" fill="white"/>
<path d="M76.9463 64.7181L73.9945 63.4023L66.4106 66.8329L48.023 75.1431C45.9691 76.068 43.3283 76.5324 40.6992 76.5324C38.0702 76.5324 35.4314 76.0699 33.3794 75.1431L14.9781 66.8232L7.39221 63.4023L4.41498 64.7258C3.08873 65.3237 0 67.0786 0 70.3679C0 73.6571 3.08873 75.4121 4.41303 76.008L33.3637 89.0858C35.4059 90.0106 38.0545 90.4905 40.6875 90.4905C43.3205 90.4905 45.9456 90.0106 47.9995 89.0838L76.9346 76.0099C78.2687 75.414 81.375 73.6688 81.375 70.3679C81.375 67.067 78.2902 65.3237 76.9463 64.7181Z" fill="white"/>
</svg>
