<svg width="746" height="114" viewBox="0 0 746 114" fill="none" xmlns="http://www.w3.org/2000/svg">
<path d="M106.958 55.75C106.658 40.975 119.183 28.6 133.958 28.9C146.258 28.9 156.758 36.925 159.908 48.175H149.558C146.858 42.25 140.933 38.425 133.958 38.425C124.283 38.425 116.708 46.075 116.708 55.75C116.708 65.425 124.283 73.075 133.958 73.075C140.633 73.075 146.408 69.475 149.333 63.775H159.758C156.458 74.725 146.108 82.6 133.958 82.6C119.183 82.9 106.658 70.525 106.958 55.75ZM176.022 82H166.272V29.5H176.022V82ZM183.519 34.675C183.519 31.45 186.069 28.9 189.369 28.9C192.594 28.9 195.144 31.45 195.144 34.675C195.144 37.975 192.594 40.525 189.369 40.525C186.069 40.525 183.519 37.975 183.519 34.675ZM184.494 82V44.5H194.244V82H184.494ZM201.507 63.25C201.282 52.825 210.432 43.675 220.857 43.9C225.282 43.9 229.182 45.25 232.557 47.875C236.007 50.5 238.332 53.8 239.457 57.925H229.107C227.382 55.15 224.457 53.425 220.932 53.425C218.157 53.425 215.907 54.4 214.032 56.275C212.157 58.15 211.257 60.475 211.257 63.25C211.257 66.025 212.157 68.425 214.032 70.3C215.907 72.175 218.157 73.075 220.932 73.075C224.232 73.075 227.007 71.575 228.807 68.95H239.382C238.182 72.925 235.857 76.225 232.482 78.775C229.107 81.325 225.207 82.6 220.857 82.6C210.432 82.825 201.282 73.675 201.507 63.25ZM245.807 82V29.5H255.557V56.875L268.007 44.5H280.457L266.207 58.9L282.857 82H271.982L259.607 65.05L255.557 69.1V82H245.807ZM313.488 29.5H324.213L307.263 57.925V82H297.513V57.925L280.638 29.5H291.363L302.388 48.1L313.488 29.5ZM357.301 63.25C357.526 73.675 348.376 82.825 337.951 82.6C327.526 82.825 318.376 73.675 318.601 63.25C318.376 52.825 327.526 43.675 337.951 43.9C348.376 43.675 357.526 52.825 357.301 63.25ZM328.351 63.25C328.351 66.025 329.251 68.425 331.126 70.3C333.001 72.175 335.251 73.075 338.026 73.075C340.801 73.075 343.051 72.175 344.851 70.3C346.651 68.425 347.551 66.025 347.551 63.25C347.551 60.475 346.651 58.15 344.851 56.275C343.051 54.4 340.801 53.425 338.026 53.425C335.251 53.425 333.001 54.4 331.126 56.275C329.251 58.15 328.351 60.475 328.351 63.25ZM386.957 44.5H396.707V64.225C396.707 76.45 390.182 82.6 380.207 82.6C370.232 82.6 363.707 76.45 363.707 64.225V44.5H373.457V64.225C373.457 70.3 375.482 73.075 380.207 73.075C384.932 73.075 386.957 70.3 386.957 64.225V44.5ZM403.457 82V62.275C403.457 50.35 409.907 44.35 419.507 44.35H419.957V53.875H419.582C415.307 53.875 413.207 56.5 413.207 62.275V82H403.457ZM462.352 82L458.302 70.6H438.502L434.452 82H424.477L443.527 29.5H453.277L472.327 82H462.352ZM441.727 61.45H455.077L448.402 42.7L441.727 61.45ZM497.579 43.9C507.929 43.675 517.079 52.825 516.929 63.25C517.079 73.675 507.929 82.825 497.579 82.6C493.904 82.6 490.754 81.625 488.129 79.75V97H478.304V63.25C478.079 52.825 487.154 43.675 497.579 43.9ZM507.179 63.25C507.179 60.475 506.279 58.15 504.479 56.275C502.679 54.4 500.429 53.425 497.654 53.425C494.879 53.425 492.629 54.4 490.754 56.275C488.879 58.15 487.979 60.475 487.979 63.25C487.979 66.025 488.879 68.425 490.754 70.3C492.629 72.175 494.879 73.075 497.654 73.075C500.429 73.075 502.679 72.175 504.479 70.3C506.279 68.425 507.179 66.025 507.179 63.25ZM542.603 43.9C552.953 43.675 562.103 52.825 561.953 63.25C562.103 73.675 552.953 82.825 542.603 82.6C538.928 82.6 535.778 81.625 533.153 79.75V97H523.328V63.25C523.103 52.825 532.178 43.675 542.603 43.9ZM552.203 63.25C552.203 60.475 551.303 58.15 549.503 56.275C547.703 54.4 545.453 53.425 542.678 53.425C539.903 53.425 537.653 54.4 535.778 56.275C533.903 58.15 533.003 60.475 533.003 63.25C533.003 66.025 533.903 68.425 535.778 70.3C537.653 72.175 539.903 73.075 542.678 73.075C545.453 73.075 547.703 72.175 549.503 70.3C551.303 68.425 552.203 66.025 552.203 63.25ZM585.409 89.68H583.489V34H585.409V89.68ZM644.926 59.6C645.182 72.208 634.43 82.192 621.886 82H608.766V37.2H621.886C634.43 37.008 645.182 46.992 644.926 59.6ZM643.006 59.6C643.262 48.144 633.47 38.864 621.886 39.12H610.686V80.08H621.886C633.47 80.336 643.262 71.056 643.006 59.6ZM683.078 66C683.27 74.896 675.462 82.704 666.566 82.512C657.67 82.704 649.862 74.896 650.054 66C649.862 57.104 657.67 49.296 666.566 49.488C675.462 49.296 683.27 57.104 683.078 66ZM651.974 66C651.974 74.128 658.63 80.784 666.63 80.784C674.63 80.784 681.158 74.128 681.158 66C681.158 57.872 674.758 51.216 666.63 51.216C658.502 51.216 651.974 57.872 651.974 66ZM688.224 66C688.032 57.104 695.84 49.296 704.736 49.488C710.432 49.488 715.68 52.368 718.56 56.976H716.384C713.76 53.392 709.472 51.216 704.8 51.216C696.672 51.216 690.144 57.872 690.144 66C690.144 74.128 696.8 80.784 704.8 80.784C709.6 80.784 713.952 78.48 716.576 74.704H718.816C715.808 79.504 710.56 82.512 704.736 82.512C695.84 82.704 688.032 74.896 688.224 66ZM723.636 73.936H725.556C725.556 78.224 728.948 80.784 733.556 80.784C738.612 80.784 741.556 78.416 741.556 74.064C741.236 68.624 738.484 67.6 733.172 65.936C727.732 64.208 724.788 63.12 724.468 57.232C724.468 52.56 728.308 49.488 733.364 49.488C738.42 49.488 742.26 52.56 742.26 57.232H740.34C740.34 53.456 737.46 51.216 733.364 51.216C729.268 51.216 726.388 53.456 726.388 57.232C726.644 62.032 729.14 62.864 734.132 64.336C736.18 64.912 737.844 65.552 739.06 66.128C741.556 67.344 743.476 69.712 743.476 74.064C743.476 79.184 739.444 82.512 733.556 82.512C728.308 82.512 723.636 79.12 723.636 73.936Z" fill="white"/>
<path d="M40.6875 57.2452C38.0526 57.2452 35.4177 56.7828 33.3637 55.8579L4.41303 42.7995C3.08873 42.2036 0 40.4603 0 37.1691C0 33.8779 3.08873 32.1384 4.41694 31.5347L33.618 18.3641C37.6418 16.5453 43.7136 16.5453 47.7393 18.3641L76.9581 31.5347C78.2863 32.1326 81.375 33.8759 81.375 37.1691C81.375 40.4622 78.2863 42.1997 76.9581 42.8015L48.0073 55.8579C45.9573 56.7828 43.3224 57.2452 40.6875 57.2452Z" fill="white"/>
<path d="M76.9463 51.5974L73.9945 50.2798L66.4106 53.7122L48.023 62.0322C45.9691 62.9609 43.3283 63.4233 40.6992 63.4233C38.0702 63.4233 35.4314 62.9609 33.3794 62.0322L14.9781 53.7122L7.39221 50.2798L4.41498 51.6032C3.08873 52.2011 0 53.956 0 57.2453C0 60.5346 3.08873 62.2914 4.41303 62.8893L33.3637 75.9748C35.4059 76.9036 38.0448 77.3679 40.6875 77.3679C43.3302 77.3679 45.9573 76.9036 48.0113 75.9768L76.9365 62.8951C78.2687 62.2973 81.375 60.552 81.375 57.2453C81.375 53.9386 78.2902 52.2011 76.9463 51.5974Z" fill="white"/>
<path d="M76.9463 71.7181L73.9945 70.4023L66.4106 73.8329L48.023 82.1431C45.9691 83.068 43.3283 83.5324 40.6992 83.5324C38.0702 83.5324 35.4314 83.0699 33.3794 82.1431L14.9781 73.8232L7.39221 70.4023L4.41498 71.7258C3.08873 72.3237 0 74.0786 0 77.3679C0 80.6571 3.08873 82.4121 4.41303 83.008L33.3637 96.0858C35.4059 97.0106 38.0545 97.4905 40.6875 97.4905C43.3205 97.4905 45.9456 97.0106 47.9995 96.0838L76.9346 83.0099C78.2687 82.414 81.375 80.6688 81.375 77.3679C81.375 74.067 78.2902 72.3237 76.9463 71.7181Z" fill="white"/>
</svg>
