<svg width="528" height="84" viewBox="0 0 528 84" fill="none" xmlns="http://www.w3.org/2000/svg">
<path d="M91.6519 41.6168C91.3519 26.8418 103.877 14.4668 118.652 14.7668C130.952 14.7668 141.452 22.7918 144.602 34.0418H134.252C131.552 28.1168 125.627 24.2918 118.652 24.2918C108.977 24.2918 101.402 31.9418 101.402 41.6168C101.402 51.2918 108.977 58.9418 118.652 58.9418C125.327 58.9418 131.102 55.3418 134.027 49.6418H144.452C141.152 60.5918 130.802 68.4668 118.652 68.4668C103.877 68.7668 91.3519 56.3918 91.6519 41.6168ZM158.466 67.8668H148.716V15.3668H158.466V67.8668ZM164.463 20.5418C164.463 17.3168 167.013 14.7668 170.313 14.7668C173.538 14.7668 176.088 17.3168 176.088 20.5418C176.088 23.8418 173.538 26.3918 170.313 26.3918C167.013 26.3918 164.463 23.8418 164.463 20.5418ZM165.438 67.8668V30.3668H175.188V67.8668H165.438ZM180.202 49.1168C179.977 38.6918 189.127 29.5418 199.552 29.7668C203.977 29.7668 207.877 31.1168 211.252 33.7418C214.702 36.3668 217.027 39.6668 218.152 43.7918H207.802C206.077 41.0168 203.152 39.2918 199.627 39.2918C196.852 39.2918 194.602 40.2668 192.727 42.1418C190.852 44.0168 189.952 46.3418 189.952 49.1168C189.952 51.8918 190.852 54.2918 192.727 56.1668C194.602 58.0418 196.852 58.9418 199.627 58.9418C202.927 58.9418 205.702 57.4418 207.502 54.8168H218.077C216.877 58.7918 214.552 62.0918 211.177 64.6418C207.802 67.1918 203.902 68.4668 199.552 68.4668C189.127 68.6918 179.977 59.5418 180.202 49.1168ZM222.251 67.8668V15.3668H232.001V42.7418L244.451 30.3668H256.901L242.651 44.7668L259.301 67.8668H248.426L236.051 50.9168L232.001 54.9668V67.8668H222.251ZM292.183 15.3668H302.908L285.958 43.7918V67.8668H276.208V43.7918L259.333 15.3668H270.058L281.083 33.9668L292.183 15.3668ZM333.745 49.1168C333.97 59.5418 324.82 68.6918 314.395 68.4668C303.97 68.6918 294.82 59.5418 295.045 49.1168C294.82 38.6918 303.97 29.5418 314.395 29.7668C324.82 29.5418 333.97 38.6918 333.745 49.1168ZM304.795 49.1168C304.795 51.8918 305.695 54.2918 307.57 56.1668C309.445 58.0418 311.695 58.9418 314.47 58.9418C317.245 58.9418 319.495 58.0418 321.295 56.1668C323.095 54.2918 323.995 51.8918 323.995 49.1168C323.995 46.3418 323.095 44.0168 321.295 42.1418C319.495 40.2668 317.245 39.2918 314.47 39.2918C311.695 39.2918 309.445 40.2668 307.57 42.1418C305.695 44.0168 304.795 46.3418 304.795 49.1168ZM361.151 30.3668H370.901V50.0918C370.901 62.3168 364.376 68.4668 354.401 68.4668C344.426 68.4668 337.901 62.3168 337.901 50.0918V30.3668H347.651V50.0918C347.651 56.1668 349.676 58.9418 354.401 58.9418C359.126 58.9418 361.151 56.1668 361.151 50.0918V30.3668ZM375.401 67.8668V48.1418C375.401 36.2168 381.851 30.2168 391.451 30.2168H391.901V39.7418H391.526C387.251 39.7418 385.151 42.3668 385.151 48.1418V67.8668H375.401ZM432.046 67.8668L427.996 56.4668H408.196L404.146 67.8668H394.171L413.221 15.3668H422.971L442.021 67.8668H432.046ZM411.421 47.3168H424.771L418.096 28.5668L411.421 47.3168ZM463.524 29.7668C473.874 29.5418 483.024 38.6918 482.874 49.1168C483.024 59.5418 473.874 68.6918 463.524 68.4668C459.849 68.4668 456.699 67.4918 454.074 65.6168V82.8668H444.249V49.1168C444.024 38.6918 453.099 29.5418 463.524 29.7668ZM473.124 49.1168C473.124 46.3418 472.224 44.0168 470.424 42.1418C468.624 40.2668 466.374 39.2918 463.599 39.2918C460.824 39.2918 458.574 40.2668 456.699 42.1418C454.824 44.0168 453.924 46.3418 453.924 49.1168C453.924 51.8918 454.824 54.2918 456.699 56.1668C458.574 58.0418 460.824 58.9418 463.599 58.9418C466.374 58.9418 468.624 58.0418 470.424 56.1668C472.224 54.2918 473.124 51.8918 473.124 49.1168ZM506.297 29.7668C516.647 29.5418 525.797 38.6918 525.647 49.1168C525.797 59.5418 516.647 68.6918 506.297 68.4668C502.622 68.4668 499.472 67.4918 496.847 65.6168V82.8668H487.022V49.1168C486.797 38.6918 495.872 29.5418 506.297 29.7668ZM515.897 49.1168C515.897 46.3418 514.997 44.0168 513.197 42.1418C511.397 40.2668 509.147 39.2918 506.372 39.2918C503.597 39.2918 501.347 40.2668 499.472 42.1418C497.597 44.0168 496.697 46.3418 496.697 49.1168C496.697 51.8918 497.597 54.2918 499.472 56.1668C501.347 58.0418 503.597 58.9418 506.372 58.9418C509.147 58.9418 511.397 58.0418 513.197 56.1668C514.997 54.2918 515.897 51.8918 515.897 49.1168Z" fill="white"/>
<path d="M38.249 42.4828C35.8286 42.4828 33.4082 42.058 31.5215 41.2084L4.92777 29.2131C3.71129 28.6657 0.874023 27.0643 0.874023 24.0411C0.874023 21.0178 3.71129 19.42 4.93137 18.8654L31.7551 6.76707C35.4513 5.09636 41.0288 5.09636 44.7268 6.76707L71.5667 18.8654C72.7868 19.4146 75.624 21.016 75.624 24.0411C75.624 27.0661 72.7868 28.6622 71.5667 29.2149L44.9729 41.2084C43.0898 42.058 40.6694 42.4828 38.249 42.4828Z" fill="white"/>
<path d="M71.5559 37.2947L68.8444 36.0844L61.8779 39.2374L44.9873 46.8799C43.1006 47.7331 40.6748 48.1578 38.2598 48.1578C35.8448 48.1578 33.4208 47.7331 31.5359 46.8799L14.6327 39.2374L7.66441 36.0844L4.92957 37.3001C3.71129 37.8493 0.874023 39.4613 0.874023 42.4828C0.874023 45.5043 3.71129 47.1181 4.92777 47.6673L31.5215 59.6875C33.3975 60.5406 35.8214 60.9672 38.249 60.9672C40.6766 60.9672 43.0898 60.5406 44.9765 59.6893L71.5469 47.6726C72.7706 47.1234 75.624 45.5203 75.624 42.4828C75.624 39.4453 72.7904 37.8493 71.5559 37.2947Z" fill="white"/>
<path d="M71.5559 55.7773L68.8444 54.5687L61.8779 57.72L44.9873 65.3536C43.1006 66.2032 40.6748 66.6298 38.2598 66.6298C35.8448 66.6298 33.4208 66.205 31.5359 65.3536L14.6327 57.7111L7.66441 54.5687L4.92957 55.7844C3.71129 56.3336 0.874023 57.9457 0.874023 60.9672C0.874023 63.9886 3.71129 65.6007 4.92777 66.1481L31.5215 78.1612C33.3975 79.0108 35.8304 79.4515 38.249 79.4515C40.6676 79.4515 43.079 79.0108 44.9657 78.1594L71.5451 66.1499C72.7706 65.6025 75.624 63.9993 75.624 60.9672C75.624 57.935 72.7904 56.3336 71.5559 55.7773Z" fill="white"/>
</svg>
