<svg width="715" height="86" viewBox="0 0 715 86" fill="none" xmlns="http://www.w3.org/2000/svg">
<path d="M108.875 42.0376C108.575 27.2626 121.1 14.8876 135.875 15.1876C148.175 15.1876 158.675 23.2126 161.825 34.4626H151.475C148.775 28.5376 142.85 24.7126 135.875 24.7126C126.2 24.7126 118.625 32.3626 118.625 42.0376C118.625 51.7126 126.2 59.3626 135.875 59.3626C142.55 59.3626 148.325 55.7626 151.25 50.0626H161.675C158.375 61.0126 148.025 68.8876 135.875 68.8876C121.1 69.1876 108.575 56.8126 108.875 42.0376ZM175.689 68.2876H165.939V15.7876H175.689V68.2876ZM181.687 20.9626C181.687 17.7376 184.237 15.1876 187.537 15.1876C190.762 15.1876 193.312 17.7376 193.312 20.9626C193.312 24.2626 190.762 26.8126 187.537 26.8126C184.237 26.8126 181.687 24.2626 181.687 20.9626ZM182.662 68.2876V30.7876H192.412V68.2876H182.662ZM197.425 49.5376C197.2 39.1126 206.35 29.9626 216.775 30.1876C221.2 30.1876 225.1 31.5376 228.475 34.1626C231.925 36.7876 234.25 40.0876 235.375 44.2126H225.025C223.3 41.4376 220.375 39.7126 216.85 39.7126C214.075 39.7126 211.825 40.6876 209.95 42.5626C208.075 44.4376 207.175 46.7626 207.175 49.5376C207.175 52.3126 208.075 54.7126 209.95 56.5876C211.825 58.4626 214.075 59.3626 216.85 59.3626C220.15 59.3626 222.925 57.8626 224.725 55.2376H235.3C234.1 59.2126 231.775 62.5126 228.4 65.0626C225.025 67.6126 221.125 68.8876 216.775 68.8876C206.35 69.1126 197.2 59.9626 197.425 49.5376ZM239.475 68.2876V15.7876H249.225V43.1626L261.675 30.7876H274.125L259.875 45.1876L276.525 68.2876H265.65L253.275 51.3376L249.225 55.3876V68.2876H239.475ZM309.406 15.7876H320.131L303.181 44.2126V68.2876H293.431V44.2126L276.556 15.7876H287.281L298.306 34.3876L309.406 15.7876ZM350.969 49.5376C351.194 59.9626 342.044 69.1126 331.619 68.8876C321.194 69.1126 312.044 59.9626 312.269 49.5376C312.044 39.1126 321.194 29.9626 331.619 30.1876C342.044 29.9626 351.194 39.1126 350.969 49.5376ZM322.019 49.5376C322.019 52.3126 322.919 54.7126 324.794 56.5876C326.669 58.4626 328.919 59.3626 331.694 59.3626C334.469 59.3626 336.719 58.4626 338.519 56.5876C340.319 54.7126 341.219 52.3126 341.219 49.5376C341.219 46.7626 340.319 44.4376 338.519 42.5626C336.719 40.6876 334.469 39.7126 331.694 39.7126C328.919 39.7126 326.669 40.6876 324.794 42.5626C322.919 44.4376 322.019 46.7626 322.019 49.5376ZM378.374 30.7876H388.124V50.5126C388.124 62.7376 381.599 68.8876 371.624 68.8876C361.649 68.8876 355.124 62.7376 355.124 50.5126V30.7876H364.874V50.5126C364.874 56.5876 366.899 59.3626 371.624 59.3626C376.349 59.3626 378.374 56.5876 378.374 50.5126V30.7876ZM392.624 68.2876V48.5626C392.624 36.6376 399.074 30.6376 408.674 30.6376H409.124V40.1626H408.749C404.474 40.1626 402.374 42.7876 402.374 48.5626V68.2876H392.624ZM449.27 68.2876L445.22 56.8876H425.42L421.37 68.2876H411.395L430.445 15.7876H440.195L459.245 68.2876H449.27ZM428.645 47.7376H441.995L435.32 28.9876L428.645 47.7376ZM480.747 30.1876C491.097 29.9626 500.247 39.1126 500.097 49.5376C500.247 59.9626 491.097 69.1126 480.747 68.8876C477.072 68.8876 473.922 67.9126 471.297 66.0376V83.2876H461.472V49.5376C461.247 39.1126 470.322 29.9626 480.747 30.1876ZM490.347 49.5376C490.347 46.7626 489.447 44.4376 487.647 42.5626C485.847 40.6876 483.597 39.7126 480.822 39.7126C478.047 39.7126 475.797 40.6876 473.922 42.5626C472.047 44.4376 471.147 46.7626 471.147 49.5376C471.147 52.3126 472.047 54.7126 473.922 56.5876C475.797 58.4626 478.047 59.3626 480.822 59.3626C483.597 59.3626 485.847 58.4626 487.647 56.5876C489.447 54.7126 490.347 52.3126 490.347 49.5376ZM523.52 30.1876C533.87 29.9626 543.02 39.1126 542.87 49.5376C543.02 59.9626 533.87 69.1126 523.52 68.8876C519.845 68.8876 516.695 67.9126 514.07 66.0376V83.2876H504.245V49.5376C504.02 39.1126 513.095 29.9626 523.52 30.1876ZM533.12 49.5376C533.12 46.7626 532.22 44.4376 530.42 42.5626C528.62 40.6876 526.37 39.7126 523.595 39.7126C520.82 39.7126 518.57 40.6876 516.695 42.5626C514.82 44.4376 513.92 46.7626 513.92 49.5376C513.92 52.3126 514.82 54.7126 516.695 56.5876C518.57 58.4626 520.82 59.3626 523.595 59.3626C526.37 59.3626 528.62 58.4626 530.42 56.5876C532.22 54.7126 533.12 52.3126 533.12 49.5376ZM564.296 75.9676H562.376V20.2876H564.296V75.9676ZM619.974 45.8876C620.23 58.4956 609.478 68.4796 596.934 68.2876H583.814V23.4876H596.934C609.478 23.2956 620.23 33.2796 619.974 45.8876ZM618.054 45.8876C618.31 34.4316 608.518 25.1516 596.934 25.4076H585.734V66.3676H596.934C608.518 66.6236 618.31 57.3436 618.054 45.8876ZM656.205 52.2876C656.397 61.1836 648.589 68.9916 639.693 68.7996C630.797 68.9916 622.989 61.1836 623.181 52.2876C622.989 43.3916 630.797 35.5836 639.693 35.7756C648.589 35.5836 656.397 43.3916 656.205 52.2876ZM625.101 52.2876C625.101 60.4156 631.757 67.0716 639.757 67.0716C647.757 67.0716 654.285 60.4156 654.285 52.2876C654.285 44.1596 647.885 37.5036 639.757 37.5036C631.629 37.5036 625.101 44.1596 625.101 52.2876ZM659.431 52.2876C659.239 43.3916 667.047 35.5836 675.943 35.7756C681.639 35.7756 686.887 38.6556 689.767 43.2636H687.591C684.967 39.6796 680.679 37.5036 676.007 37.5036C667.879 37.5036 661.351 44.1596 661.351 52.2876C661.351 60.4156 668.007 67.0716 676.007 67.0716C680.807 67.0716 685.159 64.7676 687.783 60.9916H690.023C687.015 65.7916 681.767 68.7996 675.943 68.7996C667.047 68.9916 659.239 61.1836 659.431 52.2876ZM692.924 60.2236H694.844C694.844 64.5116 698.236 67.0716 702.844 67.0716C707.9 67.0716 710.844 64.7036 710.844 60.3516C710.524 54.9116 707.772 53.8876 702.46 52.2236C697.02 50.4956 694.076 49.4076 693.756 43.5196C693.756 38.8476 697.596 35.7756 702.652 35.7756C707.708 35.7756 711.548 38.8476 711.548 43.5196H709.628C709.628 39.7436 706.748 37.5036 702.652 37.5036C698.556 37.5036 695.676 39.7436 695.676 43.5196C695.932 48.3196 698.428 49.1516 703.42 50.6236C705.468 51.1996 707.132 51.8396 708.348 52.4156C710.844 53.6316 712.764 55.9996 712.764 60.3516C712.764 65.4716 708.732 68.7996 702.844 68.7996C697.596 68.7996 692.924 65.4076 692.924 60.2236Z" fill="white"/>
<path d="M43.375 42.9035C40.5661 42.9035 37.7571 42.4106 35.5675 41.4246L4.70452 27.5036C3.29275 26.8683 0 25.0099 0 21.5013C0 17.9927 3.29275 16.1383 4.70869 15.4948L35.8386 1.45418C40.1281 -0.484727 46.601 -0.484727 50.8926 1.45418L82.0413 15.4948C83.4573 16.1321 86.75 17.9906 86.75 21.5013C86.75 25.0119 83.4573 26.8642 82.0413 27.5057L51.1783 41.4246C48.9929 42.4106 46.1839 42.9035 43.375 42.9035Z" fill="white"/>
<path d="M82.0288 36.8826L78.882 35.4779L70.7972 39.1371L51.195 48.0066C49.0054 48.9966 46.1902 49.4896 43.3875 49.4896C40.5848 49.4896 37.7717 48.9966 35.5842 48.0066L15.9674 39.1371L7.88049 35.4779L4.7066 36.8888C3.29275 37.5261 0 39.397 0 42.9035C0 46.4101 3.29275 48.283 4.70452 48.9203L35.5675 62.8702C37.7446 63.8602 40.5577 64.3553 43.375 64.3553C46.1923 64.3553 48.9929 63.8602 51.1825 62.8722L82.0184 48.9265C83.4385 48.2892 86.75 46.4286 86.75 42.9035C86.75 39.3784 83.4614 37.5261 82.0288 36.8826Z" fill="white"/>
<path d="M82.0288 58.3323L78.882 56.9297L70.7972 60.5868L51.195 69.446C49.0054 70.4319 46.1902 70.927 43.3875 70.927C40.5848 70.927 37.7717 70.434 35.5842 69.446L15.9674 60.5765L7.88049 56.9297L4.7066 58.3406C3.29275 58.9779 0 60.8488 0 64.3553C0 67.8618 3.29275 69.7327 4.70452 70.368L35.5675 84.3096C37.7446 85.2955 40.5681 85.8071 43.375 85.8071C46.1819 85.8071 48.9804 85.2955 51.17 84.3075L82.0163 70.37C83.4385 69.7347 86.75 67.8742 86.75 64.3553C86.75 60.8364 83.4614 58.9779 82.0288 58.3323Z" fill="white"/>
</svg>
