<svg width="746" height="136" viewBox="0 0 746 136" fill="none" xmlns="http://www.w3.org/2000/svg">
<path d="M106.958 66.75C106.658 51.975 119.183 39.6 133.958 39.9C146.258 39.9 156.758 47.925 159.908 59.175H149.558C146.858 53.25 140.933 49.425 133.958 49.425C124.283 49.425 116.708 57.075 116.708 66.75C116.708 76.425 124.283 84.075 133.958 84.075C140.633 84.075 146.408 80.475 149.333 74.775H159.758C156.458 85.725 146.108 93.6 133.958 93.6C119.183 93.9 106.658 81.525 106.958 66.75ZM176.022 93H166.272V40.5H176.022V93ZM183.519 45.675C183.519 42.45 186.069 39.9 189.369 39.9C192.594 39.9 195.144 42.45 195.144 45.675C195.144 48.975 192.594 51.525 189.369 51.525C186.069 51.525 183.519 48.975 183.519 45.675ZM184.494 93V55.5H194.244V93H184.494ZM201.507 74.25C201.282 63.825 210.432 54.675 220.857 54.9C225.282 54.9 229.182 56.25 232.557 58.875C236.007 61.5 238.332 64.8 239.457 68.925H229.107C227.382 66.15 224.457 64.425 220.932 64.425C218.157 64.425 215.907 65.4 214.032 67.275C212.157 69.15 211.257 71.475 211.257 74.25C211.257 77.025 212.157 79.425 214.032 81.3C215.907 83.175 218.157 84.075 220.932 84.075C224.232 84.075 227.007 82.575 228.807 79.95H239.382C238.182 83.925 235.857 87.225 232.482 89.775C229.107 92.325 225.207 93.6 220.857 93.6C210.432 93.825 201.282 84.675 201.507 74.25ZM245.807 93V40.5H255.557V67.875L268.007 55.5H280.457L266.207 69.9L282.857 93H271.982L259.607 76.05L255.557 80.1V93H245.807ZM313.488 40.5H324.213L307.263 68.925V93H297.513V68.925L280.638 40.5H291.363L302.388 59.1L313.488 40.5ZM357.301 74.25C357.526 84.675 348.376 93.825 337.951 93.6C327.526 93.825 318.376 84.675 318.601 74.25C318.376 63.825 327.526 54.675 337.951 54.9C348.376 54.675 357.526 63.825 357.301 74.25ZM328.351 74.25C328.351 77.025 329.251 79.425 331.126 81.3C333.001 83.175 335.251 84.075 338.026 84.075C340.801 84.075 343.051 83.175 344.851 81.3C346.651 79.425 347.551 77.025 347.551 74.25C347.551 71.475 346.651 69.15 344.851 67.275C343.051 65.4 340.801 64.425 338.026 64.425C335.251 64.425 333.001 65.4 331.126 67.275C329.251 69.15 328.351 71.475 328.351 74.25ZM386.957 55.5H396.707V75.225C396.707 87.45 390.182 93.6 380.207 93.6C370.232 93.6 363.707 87.45 363.707 75.225V55.5H373.457V75.225C373.457 81.3 375.482 84.075 380.207 84.075C384.932 84.075 386.957 81.3 386.957 75.225V55.5ZM403.457 93V73.275C403.457 61.35 409.907 55.35 419.507 55.35H419.957V64.875H419.582C415.307 64.875 413.207 67.5 413.207 73.275V93H403.457ZM462.352 93L458.302 81.6H438.502L434.452 93H424.477L443.527 40.5H453.277L472.327 93H462.352ZM441.727 72.45H455.077L448.402 53.7L441.727 72.45ZM497.579 54.9C507.929 54.675 517.079 63.825 516.929 74.25C517.079 84.675 507.929 93.825 497.579 93.6C493.904 93.6 490.754 92.625 488.129 90.75V108H478.304V74.25C478.079 63.825 487.154 54.675 497.579 54.9ZM507.179 74.25C507.179 71.475 506.279 69.15 504.479 67.275C502.679 65.4 500.429 64.425 497.654 64.425C494.879 64.425 492.629 65.4 490.754 67.275C488.879 69.15 487.979 71.475 487.979 74.25C487.979 77.025 488.879 79.425 490.754 81.3C492.629 83.175 494.879 84.075 497.654 84.075C500.429 84.075 502.679 83.175 504.479 81.3C506.279 79.425 507.179 77.025 507.179 74.25ZM542.603 54.9C552.953 54.675 562.103 63.825 561.953 74.25C562.103 84.675 552.953 93.825 542.603 93.6C538.928 93.6 535.778 92.625 533.153 90.75V108H523.328V74.25C523.103 63.825 532.178 54.675 542.603 54.9ZM552.203 74.25C552.203 71.475 551.303 69.15 549.503 67.275C547.703 65.4 545.453 64.425 542.678 64.425C539.903 64.425 537.653 65.4 535.778 67.275C533.903 69.15 533.003 71.475 533.003 74.25C533.003 77.025 533.903 79.425 535.778 81.3C537.653 83.175 539.903 84.075 542.678 84.075C545.453 84.075 547.703 83.175 549.503 81.3C551.303 79.425 552.203 77.025 552.203 74.25ZM585.409 100.68H583.489V45H585.409V100.68ZM644.926 70.6C645.182 83.208 634.43 93.192 621.886 93H608.766V48.2H621.886C634.43 48.008 645.182 57.992 644.926 70.6ZM643.006 70.6C643.262 59.144 633.47 49.864 621.886 50.12H610.686V91.08H621.886C633.47 91.336 643.262 82.056 643.006 70.6ZM683.078 77C683.27 85.896 675.462 93.704 666.566 93.512C657.67 93.704 649.862 85.896 650.054 77C649.862 68.104 657.67 60.296 666.566 60.488C675.462 60.296 683.27 68.104 683.078 77ZM651.974 77C651.974 85.128 658.63 91.784 666.63 91.784C674.63 91.784 681.158 85.128 681.158 77C681.158 68.872 674.758 62.216 666.63 62.216C658.502 62.216 651.974 68.872 651.974 77ZM688.224 77C688.032 68.104 695.84 60.296 704.736 60.488C710.432 60.488 715.68 63.368 718.56 67.976H716.384C713.76 64.392 709.472 62.216 704.8 62.216C696.672 62.216 690.144 68.872 690.144 77C690.144 85.128 696.8 91.784 704.8 91.784C709.6 91.784 713.952 89.48 716.576 85.704H718.816C715.808 90.504 710.56 93.512 704.736 93.512C695.84 93.704 688.032 85.896 688.224 77ZM723.636 84.936H725.556C725.556 89.224 728.948 91.784 733.556 91.784C738.612 91.784 741.556 89.416 741.556 85.064C741.236 79.624 738.484 78.6 733.172 76.936C727.732 75.208 724.788 74.12 724.468 68.232C724.468 63.56 728.308 60.488 733.364 60.488C738.42 60.488 742.26 63.56 742.26 68.232H740.34C740.34 64.456 737.46 62.216 733.364 62.216C729.268 62.216 726.388 64.456 726.388 68.232C726.644 73.032 729.14 73.864 734.132 75.336C736.18 75.912 737.844 76.552 739.06 77.128C741.556 78.344 743.476 80.712 743.476 85.064C743.476 90.184 739.444 93.512 733.556 93.512C728.308 93.512 723.636 90.12 723.636 84.936Z" fill="white"/>
<path d="M40.6875 68.2452C38.0526 68.2452 35.4177 67.7828 33.3637 66.8579L4.41303 53.7995C3.08873 53.2036 0 51.4603 0 48.1691C0 44.8779 3.08873 43.1384 4.41694 42.5347L33.618 29.3641C37.6418 27.5453 43.7136 27.5453 47.7393 29.3641L76.9581 42.5347C78.2863 43.1326 81.375 44.8759 81.375 48.1691C81.375 51.4622 78.2863 53.1997 76.9581 53.8015L48.0073 66.8579C45.9573 67.7828 43.3224 68.2452 40.6875 68.2452Z" fill="white"/>
<path d="M76.9463 62.5974L73.9945 61.2798L66.4106 64.7122L48.023 73.0322C45.9691 73.9609 43.3283 74.4233 40.6992 74.4233C38.0702 74.4233 35.4314 73.9609 33.3794 73.0322L14.9781 64.7122L7.39221 61.2798L4.41498 62.6032C3.08873 63.2011 0 64.956 0 68.2453C0 71.5346 3.08873 73.2914 4.41303 73.8893L33.3637 86.9748C35.4059 87.9036 38.0448 88.3679 40.6875 88.3679C43.3302 88.3679 45.9573 87.9036 48.0113 86.9768L76.9365 73.8951C78.2687 73.2973 81.375 71.552 81.375 68.2453C81.375 64.9386 78.2902 63.2011 76.9463 62.5974Z" fill="white"/>
<path d="M76.9463 82.7181L73.9945 81.4023L66.4106 84.8329L48.023 93.1431C45.9691 94.068 43.3283 94.5324 40.6992 94.5324C38.0702 94.5324 35.4314 94.0699 33.3794 93.1431L14.9781 84.8232L7.39221 81.4023L4.41498 82.7258C3.08873 83.3237 0 85.0786 0 88.3679C0 91.6571 3.08873 93.4121 4.41303 94.008L33.3637 107.086C35.4059 108.011 38.0545 108.49 40.6875 108.49C43.3205 108.49 45.9456 108.011 47.9995 107.084L76.9346 94.0099C78.2687 93.414 81.375 91.6688 81.375 88.3679C81.375 85.067 78.2902 83.3237 76.9463 82.7181Z" fill="white"/>
</svg>
