<svg width="528" height="84" viewBox="0 0 528 84" fill="none" xmlns="http://www.w3.org/2000/svg">
<path d="M91.4028 41.634C91.1028 26.859 103.628 14.484 118.403 14.784C130.703 14.784 141.203 22.809 144.353 34.059H134.003C131.303 28.134 125.378 24.309 118.403 24.309C108.728 24.309 101.153 31.959 101.153 41.634C101.153 51.309 108.728 58.959 118.403 58.959C125.078 58.959 130.853 55.359 133.778 49.659H144.203C140.903 60.609 130.553 68.484 118.403 68.484C103.628 68.784 91.1028 56.409 91.4028 41.634ZM158.217 67.884H148.467V15.384H158.217V67.884ZM164.214 20.559C164.214 17.334 166.764 14.784 170.064 14.784C173.289 14.784 175.839 17.334 175.839 20.559C175.839 23.859 173.289 26.409 170.064 26.409C166.764 26.409 164.214 23.859 164.214 20.559ZM165.189 67.884V30.384H174.939V67.884H165.189ZM179.953 49.134C179.728 38.709 188.878 29.559 199.303 29.784C203.728 29.784 207.628 31.134 211.003 33.759C214.453 36.384 216.778 39.684 217.903 43.809H207.553C205.828 41.034 202.903 39.309 199.378 39.309C196.603 39.309 194.353 40.284 192.478 42.159C190.603 44.034 189.703 46.359 189.703 49.134C189.703 51.909 190.603 54.309 192.478 56.184C194.353 58.059 196.603 58.959 199.378 58.959C202.678 58.959 205.453 57.459 207.253 54.834H217.828C216.628 58.809 214.303 62.109 210.928 64.659C207.553 67.209 203.653 68.484 199.303 68.484C188.878 68.709 179.728 59.559 179.953 49.134ZM222.002 67.884V15.384H231.752V42.759L244.202 30.384H256.652L242.402 44.784L259.052 67.884H248.177L235.802 50.934L231.752 54.984V67.884H222.002ZM291.933 15.384H302.658L285.708 43.809V67.884H275.958V43.809L259.083 15.384H269.808L280.833 33.984L291.933 15.384ZM333.496 49.134C333.721 59.559 324.571 68.709 314.146 68.484C303.721 68.709 294.571 59.559 294.796 49.134C294.571 38.709 303.721 29.559 314.146 29.784C324.571 29.559 333.721 38.709 333.496 49.134ZM304.546 49.134C304.546 51.909 305.446 54.309 307.321 56.184C309.196 58.059 311.446 58.959 314.221 58.959C316.996 58.959 319.246 58.059 321.046 56.184C322.846 54.309 323.746 51.909 323.746 49.134C323.746 46.359 322.846 44.034 321.046 42.159C319.246 40.284 316.996 39.309 314.221 39.309C311.446 39.309 309.196 40.284 307.321 42.159C305.446 44.034 304.546 46.359 304.546 49.134ZM360.902 30.384H370.652V50.109C370.652 62.334 364.127 68.484 354.152 68.484C344.177 68.484 337.652 62.334 337.652 50.109V30.384H347.402V50.109C347.402 56.184 349.427 58.959 354.152 58.959C358.877 58.959 360.902 56.184 360.902 50.109V30.384ZM375.152 67.884V48.159C375.152 36.234 381.602 30.234 391.202 30.234H391.652V39.759H391.277C387.002 39.759 384.902 42.384 384.902 48.159V67.884H375.152ZM431.797 67.884L427.747 56.484H407.947L403.897 67.884H393.922L412.972 15.384H422.722L441.772 67.884H431.797ZM411.172 47.334H424.522L417.847 28.584L411.172 47.334ZM463.275 29.784C473.625 29.559 482.775 38.709 482.625 49.134C482.775 59.559 473.625 68.709 463.275 68.484C459.6 68.484 456.45 67.509 453.825 65.634V82.884H444V49.134C443.775 38.709 452.85 29.559 463.275 29.784ZM472.875 49.134C472.875 46.359 471.975 44.034 470.175 42.159C468.375 40.284 466.125 39.309 463.35 39.309C460.575 39.309 458.325 40.284 456.45 42.159C454.575 44.034 453.675 46.359 453.675 49.134C453.675 51.909 454.575 54.309 456.45 56.184C458.325 58.059 460.575 58.959 463.35 58.959C466.125 58.959 468.375 58.059 470.175 56.184C471.975 54.309 472.875 51.909 472.875 49.134ZM506.048 29.784C516.398 29.559 525.548 38.709 525.398 49.134C525.548 59.559 516.398 68.709 506.048 68.484C502.373 68.484 499.223 67.509 496.598 65.634V82.884H486.773V49.134C486.548 38.709 495.623 29.559 506.048 29.784ZM515.648 49.134C515.648 46.359 514.748 44.034 512.948 42.159C511.148 40.284 508.898 39.309 506.123 39.309C503.348 39.309 501.098 40.284 499.223 42.159C497.348 44.034 496.448 46.359 496.448 49.134C496.448 51.909 497.348 54.309 499.223 56.184C501.098 58.059 503.348 58.959 506.123 58.959C508.898 58.959 511.148 58.059 512.948 56.184C514.748 54.309 515.648 51.909 515.648 49.134Z" fill="black"/>
<path d="M38 42.5C35.5796 42.5 33.1592 42.0752 31.2725 41.2256L4.67875 29.2304C3.46227 28.6829 0.625 27.0815 0.625 24.0583C0.625 21.035 3.46227 19.4372 4.68234 18.8827L31.5061 6.78428C35.2023 5.11357 40.7798 5.11357 44.4777 6.78428L71.3177 18.8827C72.5377 19.4319 75.375 21.0332 75.375 24.0583C75.375 27.0833 72.5377 28.6794 71.3177 29.2321L44.7239 41.2256C42.8408 42.0752 40.4204 42.5 38 42.5Z" fill="black"/>
<path d="M71.3069 37.3119L68.5954 36.1016L61.6289 39.2546L44.7383 46.8971C42.8516 47.7503 40.4258 48.1751 38.0108 48.1751C35.5958 48.1751 33.1718 47.7503 31.2869 46.8971L14.3837 39.2546L7.41539 36.1016L4.68055 37.3173C3.46227 37.8665 0.625 39.4785 0.625 42.5C0.625 45.5215 3.46227 47.1353 4.67875 47.6845L31.2725 59.7047C33.1484 60.5578 35.5724 60.9844 38 60.9844C40.4276 60.9844 42.8408 60.5578 44.7275 59.7065L71.2979 47.6898C72.5216 47.1406 75.375 45.5375 75.375 42.5C75.375 39.4625 72.5413 37.8665 71.3069 37.3119Z" fill="black"/>
<path d="M71.3069 55.7945L68.5954 54.5859L61.6289 57.7372L44.7383 65.3709C42.8516 66.2204 40.4258 66.647 38.0108 66.647C35.5958 66.647 33.1718 66.2222 31.2869 65.3709L14.3837 57.7283L7.41539 54.5859L4.68055 55.8016C3.46227 56.3508 0.625 57.9629 0.625 60.9844C0.625 64.0059 3.46227 65.6179 4.67875 66.1653L31.2725 78.1784C33.1484 79.028 35.5814 79.4688 38 79.4688C40.4186 79.4688 42.83 79.028 44.7167 78.1766L71.2961 66.1671C72.5216 65.6197 75.375 64.0165 75.375 60.9844C75.375 57.9522 72.5413 56.3508 71.3069 55.7945Z" fill="black"/>
</svg>
