<svg width="746" height="83" viewBox="0 0 746 83" fill="none" xmlns="http://www.w3.org/2000/svg">
<path d="M106.958 40.75C106.658 25.975 119.183 13.6 133.958 13.9C146.258 13.9 156.758 21.925 159.908 33.175H149.558C146.858 27.25 140.933 23.425 133.958 23.425C124.283 23.425 116.708 31.075 116.708 40.75C116.708 50.425 124.283 58.075 133.958 58.075C140.633 58.075 146.408 54.475 149.333 48.775H159.758C156.458 59.725 146.108 67.6 133.958 67.6C119.183 67.9 106.658 55.525 106.958 40.75ZM176.022 67H166.272V14.5H176.022V67ZM183.519 19.675C183.519 16.45 186.069 13.9 189.369 13.9C192.594 13.9 195.144 16.45 195.144 19.675C195.144 22.975 192.594 25.525 189.369 25.525C186.069 25.525 183.519 22.975 183.519 19.675ZM184.494 67V29.5H194.244V67H184.494ZM201.507 48.25C201.282 37.825 210.432 28.675 220.857 28.9C225.282 28.9 229.182 30.25 232.557 32.875C236.007 35.5 238.332 38.8 239.457 42.925H229.107C227.382 40.15 224.457 38.425 220.932 38.425C218.157 38.425 215.907 39.4 214.032 41.275C212.157 43.15 211.257 45.475 211.257 48.25C211.257 51.025 212.157 53.425 214.032 55.3C215.907 57.175 218.157 58.075 220.932 58.075C224.232 58.075 227.007 56.575 228.807 53.95H239.382C238.182 57.925 235.857 61.225 232.482 63.775C229.107 66.325 225.207 67.6 220.857 67.6C210.432 67.825 201.282 58.675 201.507 48.25ZM245.807 67V14.5H255.557V41.875L268.007 29.5H280.457L266.207 43.9L282.857 67H271.982L259.607 50.05L255.557 54.1V67H245.807ZM313.488 14.5H324.213L307.263 42.925V67H297.513V42.925L280.638 14.5H291.363L302.388 33.1L313.488 14.5ZM357.301 48.25C357.526 58.675 348.376 67.825 337.951 67.6C327.526 67.825 318.376 58.675 318.601 48.25C318.376 37.825 327.526 28.675 337.951 28.9C348.376 28.675 357.526 37.825 357.301 48.25ZM328.351 48.25C328.351 51.025 329.251 53.425 331.126 55.3C333.001 57.175 335.251 58.075 338.026 58.075C340.801 58.075 343.051 57.175 344.851 55.3C346.651 53.425 347.551 51.025 347.551 48.25C347.551 45.475 346.651 43.15 344.851 41.275C343.051 39.4 340.801 38.425 338.026 38.425C335.251 38.425 333.001 39.4 331.126 41.275C329.251 43.15 328.351 45.475 328.351 48.25ZM386.957 29.5H396.707V49.225C396.707 61.45 390.182 67.6 380.207 67.6C370.232 67.6 363.707 61.45 363.707 49.225V29.5H373.457V49.225C373.457 55.3 375.482 58.075 380.207 58.075C384.932 58.075 386.957 55.3 386.957 49.225V29.5ZM403.457 67V47.275C403.457 35.35 409.907 29.35 419.507 29.35H419.957V38.875H419.582C415.307 38.875 413.207 41.5 413.207 47.275V67H403.457ZM462.352 67L458.302 55.6H438.502L434.452 67H424.477L443.527 14.5H453.277L472.327 67H462.352ZM441.727 46.45H455.077L448.402 27.7L441.727 46.45ZM497.579 28.9C507.929 28.675 517.079 37.825 516.929 48.25C517.079 58.675 507.929 67.825 497.579 67.6C493.904 67.6 490.754 66.625 488.129 64.75V82H478.304V48.25C478.079 37.825 487.154 28.675 497.579 28.9ZM507.179 48.25C507.179 45.475 506.279 43.15 504.479 41.275C502.679 39.4 500.429 38.425 497.654 38.425C494.879 38.425 492.629 39.4 490.754 41.275C488.879 43.15 487.979 45.475 487.979 48.25C487.979 51.025 488.879 53.425 490.754 55.3C492.629 57.175 494.879 58.075 497.654 58.075C500.429 58.075 502.679 57.175 504.479 55.3C506.279 53.425 507.179 51.025 507.179 48.25ZM542.603 28.9C552.953 28.675 562.103 37.825 561.953 48.25C562.103 58.675 552.953 67.825 542.603 67.6C538.928 67.6 535.778 66.625 533.153 64.75V82H523.328V48.25C523.103 37.825 532.178 28.675 542.603 28.9ZM552.203 48.25C552.203 45.475 551.303 43.15 549.503 41.275C547.703 39.4 545.453 38.425 542.678 38.425C539.903 38.425 537.653 39.4 535.778 41.275C533.903 43.15 533.003 45.475 533.003 48.25C533.003 51.025 533.903 53.425 535.778 55.3C537.653 57.175 539.903 58.075 542.678 58.075C545.453 58.075 547.703 57.175 549.503 55.3C551.303 53.425 552.203 51.025 552.203 48.25ZM585.409 74.68H583.489V19H585.409V74.68ZM644.926 44.6C645.182 57.208 634.43 67.192 621.886 67H608.766V22.2H621.886C634.43 22.008 645.182 31.992 644.926 44.6ZM643.006 44.6C643.262 33.144 633.47 23.864 621.886 24.12H610.686V65.08H621.886C633.47 65.336 643.262 56.056 643.006 44.6ZM683.078 51C683.27 59.896 675.462 67.704 666.566 67.512C657.67 67.704 649.862 59.896 650.054 51C649.862 42.104 657.67 34.296 666.566 34.488C675.462 34.296 683.27 42.104 683.078 51ZM651.974 51C651.974 59.128 658.63 65.784 666.63 65.784C674.63 65.784 681.158 59.128 681.158 51C681.158 42.872 674.758 36.216 666.63 36.216C658.502 36.216 651.974 42.872 651.974 51ZM688.224 51C688.032 42.104 695.84 34.296 704.736 34.488C710.432 34.488 715.68 37.368 718.56 41.976H716.384C713.76 38.392 709.472 36.216 704.8 36.216C696.672 36.216 690.144 42.872 690.144 51C690.144 59.128 696.8 65.784 704.8 65.784C709.6 65.784 713.952 63.48 716.576 59.704H718.816C715.808 64.504 710.56 67.512 704.736 67.512C695.84 67.704 688.032 59.896 688.224 51ZM723.636 58.936H725.556C725.556 63.224 728.948 65.784 733.556 65.784C738.612 65.784 741.556 63.416 741.556 59.064C741.236 53.624 738.484 52.6 733.172 50.936C727.732 49.208 724.788 48.12 724.468 42.232C724.468 37.56 728.308 34.488 733.364 34.488C738.42 34.488 742.26 37.56 742.26 42.232H740.34C740.34 38.456 737.46 36.216 733.364 36.216C729.268 36.216 726.388 38.456 726.388 42.232C726.644 47.032 729.14 47.864 734.132 49.336C736.18 49.912 737.844 50.552 739.06 51.128C741.556 52.344 743.476 54.712 743.476 59.064C743.476 64.184 739.444 67.512 733.556 67.512C728.308 67.512 723.636 64.12 723.636 58.936Z" fill="black"/>
<path d="M40.6875 42.2452C38.0526 42.2452 35.4177 41.7828 33.3637 40.8579L4.41303 27.7995C3.08873 27.2036 0 25.4603 0 22.1691C0 18.8779 3.08873 17.1384 4.41694 16.5347L33.618 3.36408C37.6418 1.54531 43.7136 1.54531 47.7393 3.36408L76.9581 16.5347C78.2863 17.1326 81.375 18.8759 81.375 22.1691C81.375 25.4622 78.2863 27.1997 76.9581 27.8015L48.0073 40.8579C45.9573 41.7828 43.3224 42.2452 40.6875 42.2452Z" fill="black"/>
<path d="M76.9463 36.5973L73.9945 35.2797L66.4106 38.7121L48.023 47.032C45.9691 47.9608 43.3283 48.4232 40.6992 48.4232C38.0702 48.4232 35.4314 47.9608 33.3794 47.032L14.9781 38.7121L7.39221 35.2797L4.41498 36.6031C3.08873 37.201 0 38.9559 0 42.2452C0 45.5345 3.08873 47.2913 4.41303 47.8892L33.3637 60.9747C35.4059 61.9034 38.0448 62.3678 40.6875 62.3678C43.3302 62.3678 45.9573 61.9034 48.0113 60.9766L76.9365 47.895C78.2687 47.2971 81.375 45.5519 81.375 42.2452C81.375 38.9385 78.2902 37.201 76.9463 36.5973Z" fill="black"/>
<path d="M76.9463 56.7181L73.9945 55.4023L66.4106 58.8329L48.023 67.1431C45.9691 68.068 43.3283 68.5324 40.6992 68.5324C38.0702 68.5324 35.4314 68.0699 33.3794 67.1431L14.9781 58.8232L7.39221 55.4023L4.41498 56.7258C3.08873 57.3237 0 59.0786 0 62.3679C0 65.6571 3.08873 67.4121 4.41303 68.008L33.3637 81.0858C35.4059 82.0106 38.0545 82.4905 40.6875 82.4905C43.3205 82.4905 45.9456 82.0106 47.9995 81.0838L76.9346 68.0099C78.2687 67.414 81.375 65.6688 81.375 62.3679C81.375 59.067 78.2902 57.3237 76.9463 56.7181Z" fill="black"/>
</svg>
