<svg width="715" height="87" viewBox="0 0 715 87" fill="none" xmlns="http://www.w3.org/2000/svg">
<path d="M108.875 42.75C108.575 27.975 121.1 15.6 135.875 15.9C148.175 15.9 158.675 23.925 161.825 35.175H151.475C148.775 29.25 142.85 25.425 135.875 25.425C126.2 25.425 118.625 33.075 118.625 42.75C118.625 52.425 126.2 60.075 135.875 60.075C142.55 60.075 148.325 56.475 151.25 50.775H161.675C158.375 61.725 148.025 69.6 135.875 69.6C121.1 69.9 108.575 57.525 108.875 42.75ZM175.689 69H165.939V16.5H175.689V69ZM181.687 21.675C181.687 18.45 184.237 15.9 187.537 15.9C190.762 15.9 193.312 18.45 193.312 21.675C193.312 24.975 190.762 27.525 187.537 27.525C184.237 27.525 181.687 24.975 181.687 21.675ZM182.662 69V31.5H192.412V69H182.662ZM197.425 50.25C197.2 39.825 206.35 30.675 216.775 30.9C221.2 30.9 225.1 32.25 228.475 34.875C231.925 37.5 234.25 40.8 235.375 44.925H225.025C223.3 42.15 220.375 40.425 216.85 40.425C214.075 40.425 211.825 41.4 209.95 43.275C208.075 45.15 207.175 47.475 207.175 50.25C207.175 53.025 208.075 55.425 209.95 57.3C211.825 59.175 214.075 60.075 216.85 60.075C220.15 60.075 222.925 58.575 224.725 55.95H235.3C234.1 59.925 231.775 63.225 228.4 65.775C225.025 68.325 221.125 69.6 216.775 69.6C206.35 69.825 197.2 60.675 197.425 50.25ZM239.475 69V16.5H249.225V43.875L261.675 31.5H274.125L259.875 45.9L276.525 69H265.65L253.275 52.05L249.225 56.1V69H239.475ZM309.406 16.5H320.131L303.181 44.925V69H293.431V44.925L276.556 16.5H287.281L298.306 35.1L309.406 16.5ZM350.969 50.25C351.194 60.675 342.044 69.825 331.619 69.6C321.194 69.825 312.044 60.675 312.269 50.25C312.044 39.825 321.194 30.675 331.619 30.9C342.044 30.675 351.194 39.825 350.969 50.25ZM322.019 50.25C322.019 53.025 322.919 55.425 324.794 57.3C326.669 59.175 328.919 60.075 331.694 60.075C334.469 60.075 336.719 59.175 338.519 57.3C340.319 55.425 341.219 53.025 341.219 50.25C341.219 47.475 340.319 45.15 338.519 43.275C336.719 41.4 334.469 40.425 331.694 40.425C328.919 40.425 326.669 41.4 324.794 43.275C322.919 45.15 322.019 47.475 322.019 50.25ZM378.374 31.5H388.124V51.225C388.124 63.45 381.599 69.6 371.624 69.6C361.649 69.6 355.124 63.45 355.124 51.225V31.5H364.874V51.225C364.874 57.3 366.899 60.075 371.624 60.075C376.349 60.075 378.374 57.3 378.374 51.225V31.5ZM392.624 69V49.275C392.624 37.35 399.074 31.35 408.674 31.35H409.124V40.875H408.749C404.474 40.875 402.374 43.5 402.374 49.275V69H392.624ZM449.27 69L445.22 57.6H425.42L421.37 69H411.395L430.445 16.5H440.195L459.245 69H449.27ZM428.645 48.45H441.995L435.32 29.7L428.645 48.45ZM480.747 30.9C491.097 30.675 500.247 39.825 500.097 50.25C500.247 60.675 491.097 69.825 480.747 69.6C477.072 69.6 473.922 68.625 471.297 66.75V84H461.472V50.25C461.247 39.825 470.322 30.675 480.747 30.9ZM490.347 50.25C490.347 47.475 489.447 45.15 487.647 43.275C485.847 41.4 483.597 40.425 480.822 40.425C478.047 40.425 475.797 41.4 473.922 43.275C472.047 45.15 471.147 47.475 471.147 50.25C471.147 53.025 472.047 55.425 473.922 57.3C475.797 59.175 478.047 60.075 480.822 60.075C483.597 60.075 485.847 59.175 487.647 57.3C489.447 55.425 490.347 53.025 490.347 50.25ZM523.52 30.9C533.87 30.675 543.02 39.825 542.87 50.25C543.02 60.675 533.87 69.825 523.52 69.6C519.845 69.6 516.695 68.625 514.07 66.75V84H504.245V50.25C504.02 39.825 513.095 30.675 523.52 30.9ZM533.12 50.25C533.12 47.475 532.22 45.15 530.42 43.275C528.62 41.4 526.37 40.425 523.595 40.425C520.82 40.425 518.57 41.4 516.695 43.275C514.82 45.15 513.92 47.475 513.92 50.25C513.92 53.025 514.82 55.425 516.695 57.3C518.57 59.175 520.82 60.075 523.595 60.075C526.37 60.075 528.62 59.175 530.42 57.3C532.22 55.425 533.12 53.025 533.12 50.25ZM564.296 76.68H562.376V21H564.296V76.68ZM619.974 46.6C620.23 59.208 609.478 69.192 596.934 69H583.814V24.2H596.934C609.478 24.008 620.23 33.992 619.974 46.6ZM618.054 46.6C618.31 35.144 608.518 25.864 596.934 26.12H585.734V67.08H596.934C608.518 67.336 618.31 58.056 618.054 46.6ZM656.205 53C656.397 61.896 648.589 69.704 639.693 69.512C630.797 69.704 622.989 61.896 623.181 53C622.989 44.104 630.797 36.296 639.693 36.488C648.589 36.296 656.397 44.104 656.205 53ZM625.101 53C625.101 61.128 631.757 67.784 639.757 67.784C647.757 67.784 654.285 61.128 654.285 53C654.285 44.872 647.885 38.216 639.757 38.216C631.629 38.216 625.101 44.872 625.101 53ZM659.431 53C659.239 44.104 667.047 36.296 675.943 36.488C681.639 36.488 686.887 39.368 689.767 43.976H687.591C684.967 40.392 680.679 38.216 676.007 38.216C667.879 38.216 661.351 44.872 661.351 53C661.351 61.128 668.007 67.784 676.007 67.784C680.807 67.784 685.159 65.48 687.783 61.704H690.023C687.015 66.504 681.767 69.512 675.943 69.512C667.047 69.704 659.239 61.896 659.431 53ZM692.924 60.936H694.844C694.844 65.224 698.236 67.784 702.844 67.784C707.9 67.784 710.844 65.416 710.844 61.064C710.524 55.624 707.772 54.6 702.46 52.936C697.02 51.208 694.076 50.12 693.756 44.232C693.756 39.56 697.596 36.488 702.652 36.488C707.708 36.488 711.548 39.56 711.548 44.232H709.628C709.628 40.456 706.748 38.216 702.652 38.216C698.556 38.216 695.676 40.456 695.676 44.232C695.932 49.032 698.428 49.864 703.42 51.336C705.468 51.912 707.132 52.552 708.348 53.128C710.844 54.344 712.764 56.712 712.764 61.064C712.764 66.184 708.732 69.512 702.844 69.512C697.596 69.512 692.924 66.12 692.924 60.936Z" fill="black"/>
<path d="M43.375 43.6159C40.5661 43.6159 37.7571 43.123 35.5675 42.137L4.70452 28.216C3.29275 27.5807 0 25.7223 0 22.2137C0 18.7051 3.29275 16.8507 4.70869 16.2072L35.8386 2.16658C40.1281 0.227675 46.601 0.227675 50.8926 2.16658L82.0413 16.2072C83.4573 16.8445 86.75 18.703 86.75 22.2137C86.75 25.7243 83.4573 27.5766 82.0413 28.2181L51.1783 42.137C48.9929 43.123 46.1839 43.6159 43.375 43.6159Z" fill="black"/>
<path d="M82.0288 37.595L78.882 36.1903L70.7972 39.8495L51.195 48.719C49.0054 49.709 46.1902 50.202 43.3875 50.202C40.5848 50.202 37.7717 49.709 35.5842 48.719L15.9674 39.8495L7.88049 36.1903L4.7066 37.6012C3.29275 38.2385 0 40.1094 0 43.6159C0 47.1225 3.29275 48.9954 4.70452 49.6327L35.5675 63.5826C37.7446 64.5726 40.5577 65.0677 43.375 65.0677C46.1923 65.0677 48.9929 64.5726 51.1825 63.5846L82.0184 49.6389C83.4385 49.0016 86.75 47.141 86.75 43.6159C86.75 40.0908 83.4614 38.2385 82.0288 37.595Z" fill="black"/>
<path d="M82.0288 59.0447L78.882 57.6421L70.7972 61.2992L51.195 70.1584C49.0054 71.1443 46.1902 71.6394 43.3875 71.6394C40.5848 71.6394 37.7717 71.1464 35.5842 70.1584L15.9674 61.2889L7.88049 57.6421L4.7066 59.053C3.29275 59.6903 0 61.5612 0 65.0677C0 68.5742 3.29275 70.4451 4.70452 71.0804L35.5675 85.022C37.7446 86.0079 40.5681 86.5195 43.375 86.5195C46.1819 86.5195 48.9804 86.0079 51.17 85.0199L82.0163 71.0824C83.4385 70.4471 86.75 68.5866 86.75 65.0677C86.75 61.5488 83.4614 59.6903 82.0288 59.0447Z" fill="black"/>
</svg>
